<?xml version="1.0" standalone="no"?>
<!DOCTYPE svg PUBLIC "-//W3C//DTD SVG 20010904//EN"
 "http://www.w3.org/TR/2001/REC-SVG-20010904/DTD/svg10.dtd">
<svg version="1.0" xmlns="http://www.w3.org/2000/svg"
 width="1112.000000pt" height="1135.000000pt" viewBox="0 0 1112.000000 1135.000000"
 preserveAspectRatio="xMidYMid meet">

<g transform="translate(0.000000,1135.000000) scale(0.100000,-0.100000)"
fill="#000000" stroke="none">
<path d="M5384 10136 c-17 -8 -51 -17 -75 -21 -97 -16 -197 -89 -474 -345 -39
-36 -119 -105 -179 -155 -59 -49 -165 -139 -235 -200 -70 -60 -139 -119 -153
-130 -34 -26 -300 -250 -404 -340 -93 -81 -398 -336 -455 -380 -72 -57 -313
-261 -479 -405 -92 -80 -225 -194 -295 -255 -71 -60 -154 -132 -185 -160 -30
-27 -82 -72 -115 -100 -32 -27 -66 -57 -75 -65 -9 -8 -42 -35 -73 -60 -32 -25
-78 -65 -105 -89 -26 -24 -126 -109 -222 -189 -294 -245 -328 -278 -361 -351
-34 -75 -37 -128 -9 -190 11 -24 20 -49 20 -56 0 -20 106 -114 136 -120 16 -4
39 -11 52 -16 13 -5 103 -9 200 -9 125 0 182 -4 190 -12 9 -9 12 -331 12
-1386 l0 -1373 26 -57 c73 -163 129 -226 237 -267 l67 -25 874 0 874 0 49 24
c53 27 88 61 122 118 19 32 23 53 23 136 1 91 -2 103 -27 148 -31 53 -81 103
-105 104 -8 0 -31 10 -50 23 l-35 22 -733 2 c-556 1 -736 4 -747 13 -13 11
-15 221 -15 1596 l0 1584 48 46 c26 25 99 89 162 142 63 53 149 126 191 162
42 36 98 83 124 105 27 22 78 67 115 100 37 33 112 96 165 140 54 44 130 110
169 147 39 36 105 95 147 130 42 34 154 131 249 213 95 83 194 168 221 190
105 86 287 241 335 284 123 111 200 179 250 221 62 52 199 168 329 279 49 42
127 111 172 154 77 73 84 77 127 77 41 0 52 -6 103 -51 140 -124 193 -170 268
-234 44 -38 99 -85 121 -104 23 -20 87 -74 143 -121 56 -47 134 -114 174 -149
40 -35 95 -82 122 -104 76 -59 300 -248 453 -381 75 -65 162 -137 192 -160 30
-23 82 -66 115 -97 33 -31 116 -105 185 -163 69 -59 163 -140 210 -181 47 -41
103 -87 125 -103 22 -17 60 -49 85 -73 25 -23 101 -90 170 -148 69 -57 168
-142 220 -188 52 -46 107 -94 123 -107 l27 -24 0 -1583 c0 -871 -4 -1590 -8
-1597 -7 -10 -154 -13 -733 -13 -667 -1 -727 -2 -759 -18 -19 -10 -47 -21 -63
-25 -74 -18 -167 -157 -167 -251 0 -57 42 -159 82 -201 16 -17 53 -43 81 -58
l52 -26 877 0 876 0 64 29 c62 28 188 137 188 164 0 7 11 35 25 62 l24 50 1
1392 c0 1251 2 1393 16 1407 13 13 44 16 187 16 248 0 321 24 400 130 37 51
52 136 36 203 -22 91 -22 91 -365 377 -75 63 -173 147 -217 185 -43 39 -113
97 -156 130 -42 33 -102 84 -133 113 -31 29 -119 106 -196 170 -252 210 -295
246 -392 332 -53 47 -132 115 -176 152 -106 89 -454 386 -548 468 -23 20 -66
56 -96 80 -30 24 -103 87 -161 140 -59 52 -153 133 -209 180 -57 47 -122 103
-145 126 -54 52 -228 203 -314 273 -36 29 -78 65 -92 80 -14 14 -52 46 -84 71
-32 25 -91 74 -129 111 -220 203 -330 281 -416 293 -25 4 -63 13 -85 21 -50
18 -141 18 -181 1z"/>
<path d="M5180 8061 c-36 -5 -81 -15 -100 -23 -19 -9 -53 -20 -75 -26 -71 -19
-139 -45 -174 -69 -19 -13 -38 -23 -43 -23 -5 0 -30 -15 -56 -32 -25 -18 -58
-40 -73 -48 -84 -46 -296 -277 -374 -406 -63 -104 -85 -145 -85 -155 0 -6 -10
-28 -22 -48 -13 -20 -28 -54 -35 -76 -21 -72 -44 -139 -61 -175 -14 -29 -17
-81 -20 -304 l-4 -269 33 -101 c18 -55 35 -105 39 -111 4 -5 11 -26 15 -45 4
-19 18 -52 31 -72 13 -21 24 -46 24 -55 0 -10 17 -45 38 -78 21 -33 41 -67 44
-75 3 -8 32 -52 64 -98 33 -46 66 -95 75 -110 8 -15 29 -49 47 -76 17 -27 37
-65 43 -85 7 -20 20 -47 30 -61 28 -38 51 -236 43 -365 -6 -92 -5 -109 15
-157 15 -37 36 -65 68 -91 l46 -37 785 0 785 0 48 49 49 48 0 262 0 261 50 98
c55 104 74 136 132 212 81 106 168 241 197 306 17 38 40 86 51 106 11 20 20
47 20 58 0 12 12 42 28 68 l27 47 0 305 0 305 -27 57 c-16 31 -28 69 -28 83 0
24 -10 49 -71 181 -11 22 -19 44 -19 48 0 4 -9 20 -20 34 -12 15 -45 65 -75
111 -66 102 -203 260 -299 345 -65 57 -196 146 -215 146 -5 0 -23 10 -42 23
-34 23 -95 47 -180 72 -26 7 -62 21 -80 31 -30 16 -67 18 -309 20 -151 1 -304
-1 -340 -5z m517 -467 c28 -13 63 -24 77 -24 26 0 126 -50 216 -108 69 -44
238 -216 256 -259 8 -17 18 -34 23 -37 11 -7 71 -128 71 -144 0 -6 11 -28 25
-48 14 -20 25 -47 25 -59 0 -12 9 -55 20 -96 21 -80 27 -277 10 -354 -34 -159
-43 -191 -60 -213 -11 -14 -20 -31 -20 -39 0 -32 -95 -181 -202 -318 -32 -41
-118 -177 -118 -188 0 -4 -11 -23 -25 -41 -14 -18 -25 -39 -25 -47 0 -8 -9
-41 -19 -74 -46 -140 -53 -176 -46 -235 6 -50 4 -58 -12 -62 -10 -2 -85 1
-168 8 -82 8 -273 17 -423 20 -177 5 -275 11 -281 18 -5 6 -11 57 -14 113 -5
100 -23 166 -71 258 -9 17 -16 38 -16 47 0 9 -5 20 -10 23 -6 4 -26 31 -45 61
-19 30 -63 92 -98 137 -127 166 -202 297 -214 372 -3 22 -15 58 -27 80 -19 37
-21 56 -21 240 0 187 1 202 22 235 11 19 24 55 28 80 8 53 78 195 140 283 42
60 139 158 223 225 60 47 206 122 239 122 16 0 46 10 68 22 52 28 140 37 295
31 104 -4 134 -9 177 -29z"/>
<path d="M4766 4607 c-15 -11 -18 -27 -17 -87 1 -46 7 -83 16 -96 8 -13 17
-42 21 -66 10 -64 101 -212 176 -284 104 -101 164 -139 336 -215 74 -32 260
-33 337 -2 28 11 65 25 83 31 83 30 102 40 180 95 78 56 202 184 202 209 0 7
11 28 24 47 15 23 32 74 45 138 27 130 27 177 1 203 -19 19 -34 20 -402 21
-211 0 -392 2 -403 4 -11 1 -146 6 -301 9 -225 5 -284 3 -298 -7z"/>
<path d="M8998 2974 c-2 -1 -60 -7 -128 -13 -93 -7 -135 -15 -165 -30 -21 -12
-46 -21 -55 -21 -8 0 -28 -9 -45 -20 -16 -11 -38 -20 -47 -20 -9 0 -66 -48
-126 -107 -92 -92 -114 -120 -146 -188 -21 -44 -45 -93 -53 -110 -9 -16 -19
-61 -24 -100 -4 -38 -13 -111 -19 -161 -9 -74 -8 -107 5 -179 8 -48 15 -104
15 -124 0 -60 78 -256 122 -306 9 -11 32 -40 50 -65 42 -56 149 -144 208 -171
169 -77 156 -74 385 -74 l210 1 68 32 c38 18 76 32 85 32 10 0 73 -54 142
-120 69 -66 133 -122 143 -125 12 -5 43 17 106 76 50 45 92 88 95 95 7 17 -67
101 -161 185 -84 74 -88 91 -40 146 63 74 127 188 127 227 0 9 10 38 22 64 22
44 23 60 23 262 0 206 -1 217 -22 251 -13 20 -23 48 -23 63 0 51 -83 186 -167
271 -88 90 -120 113 -213 162 -82 44 -89 45 -210 54 -69 5 -133 11 -142 13 -9
2 -18 2 -20 0z m177 -310 c44 -19 81 -48 138 -106 43 -45 77 -88 77 -100 0
-11 12 -40 27 -66 28 -47 28 -48 28 -237 0 -188 0 -191 -27 -240 -15 -27 -29
-61 -32 -75 -6 -30 -41 -70 -61 -70 -7 0 -49 38 -91 85 -43 47 -86 85 -96 85
-26 0 -168 -148 -168 -175 0 -14 23 -43 63 -81 116 -108 113 -134 -18 -134
-119 0 -213 37 -315 123 -47 40 -130 165 -130 196 0 15 -11 49 -25 76 -22 46
-24 61 -25 197 0 135 2 150 25 200 14 29 25 62 25 74 0 30 89 157 135 194 95
76 148 91 300 85 93 -3 120 -8 170 -31z"/>
<path d="M1195 2948 c-3 -7 -4 -375 -3 -818 l3 -805 150 0 150 0 5 338 c4 286
7 339 20 347 21 14 636 13 661 0 18 -10 19 -25 19 -335 0 -281 2 -326 16 -339
22 -22 275 -24 293 -2 9 11 12 216 11 808 0 730 -2 794 -17 806 -12 8 -60 12
-154 12 -99 0 -140 -3 -146 -12 -4 -7 -8 -151 -8 -319 0 -242 -3 -309 -14
-322 -12 -15 -49 -17 -326 -17 -283 0 -315 2 -334 18 -21 17 -21 25 -24 332
l-2 315 -148 3 c-112 2 -149 0 -152 -10z"/>
<path d="M7625 2950 c-8 -12 -7 -1608 0 -1621 4 -5 66 -9 139 -9 100 0 136 3
145 14 8 10 10 231 9 817 l-3 804 -142 3 c-87 1 -144 -1 -148 -8z"/>
<path d="M3210 2531 c-30 -10 -71 -22 -91 -25 -21 -4 -43 -13 -50 -22 -7 -9
-29 -24 -48 -34 -32 -16 -91 -72 -159 -151 -53 -61 -105 -250 -105 -379 0
-188 82 -386 194 -472 16 -13 44 -35 62 -49 35 -29 74 -47 184 -85 99 -34 267
-36 337 -5 25 12 51 21 58 21 36 2 126 53 188 108 62 56 130 140 130 161 0 5
11 25 25 46 42 62 60 275 36 440 -21 144 -135 314 -251 375 -13 7 -31 19 -38
27 -7 7 -25 15 -40 18 -15 3 -49 13 -77 22 -78 26 -284 29 -355 4z m267 -236
c59 -18 158 -107 169 -153 4 -15 16 -43 28 -62 18 -31 21 -50 21 -155 -1 -104
-4 -125 -23 -160 -12 -22 -22 -44 -22 -50 0 -19 -58 -97 -94 -127 -51 -42
-149 -62 -231 -47 -74 13 -100 27 -146 76 -55 58 -76 108 -94 225 -16 100 -16
112 0 205 12 63 27 111 42 134 30 46 92 96 141 114 50 18 147 18 209 0z"/>
<path d="M4745 2541 c-16 -5 -46 -15 -65 -22 -19 -6 -47 -16 -61 -21 -15 -5
-52 -34 -82 -64 -79 -76 -117 -73 -117 10 0 56 -15 65 -110 67 -47 1 -95 -1
-107 -5 l-23 -7 0 -579 c0 -563 1 -580 19 -590 29 -15 246 -13 259 3 7 8 12
145 14 392 4 444 5 448 95 521 42 34 63 44 106 49 79 10 135 -2 194 -42 86
-59 86 -60 90 -517 3 -262 7 -394 15 -403 14 -18 248 -19 266 -1 9 9 12 99 12
345 0 259 3 346 15 391 8 31 17 70 20 85 3 15 29 52 58 82 48 49 56 54 112 61
62 7 156 -6 180 -26 7 -6 24 -27 38 -48 46 -67 57 -160 60 -538 2 -187 7 -346
11 -352 5 -8 47 -12 131 -12 119 0 125 1 137 23 10 17 12 121 8 482 l-5 460
-30 46 c-63 95 -140 164 -198 180 -18 4 -57 15 -87 24 -72 20 -133 19 -200 -5
-30 -11 -64 -20 -75 -20 -22 0 -61 -29 -140 -102 -29 -27 -58 -48 -65 -48 -7
0 -36 21 -65 48 -82 76 -118 102 -143 102 -13 0 -37 7 -54 16 -36 19 -168 28
-213 15z"/>
<path d="M6670 2535 c-25 -8 -65 -20 -89 -25 -24 -6 -57 -22 -73 -35 -16 -14
-34 -25 -40 -25 -18 0 -100 -74 -125 -112 -77 -123 -90 -159 -103 -283 -11
-97 -11 -145 -1 -243 11 -115 15 -128 58 -210 58 -111 153 -205 245 -243 151
-62 195 -71 318 -67 120 5 164 16 275 69 67 31 191 148 183 171 -10 24 -160
118 -190 118 -20 0 -41 -13 -72 -43 -44 -44 -162 -97 -215 -97 -38 0 -153 49
-184 79 -89 82 -146 239 -89 242 9 0 182 1 384 1 436 -1 403 -11 403 127 -1
162 -17 249 -63 327 -59 101 -198 224 -254 224 -16 0 -43 7 -61 17 -46 23
-245 29 -307 8z m268 -221 c78 -49 120 -115 129 -199 8 -77 8 -77 -272 -73
-281 4 -277 2 -247 94 36 109 100 176 186 194 60 13 173 4 204 -16z"/>
</g>
</svg>
